<?xml version="1.0" encoding="UTF-8" standalone="no"?>
<!-- Created with Inkscape (http://www.inkscape.org/) -->

<svg
   xmlns:dc="http://purl.org/dc/elements/1.1/"
   xmlns:cc="http://creativecommons.org/ns#"
   xmlns:rdf="http://www.w3.org/1999/02/22-rdf-syntax-ns#"
   xmlns:svg="http://www.w3.org/2000/svg"
   xmlns="http://www.w3.org/2000/svg"
   xmlns:sodipodi="http://sodipodi.sourceforge.net/DTD/sodipodi-0.dtd"
   xmlns:inkscape="http://www.inkscape.org/namespaces/inkscape"
   width="29mm"
   height="21mm"
   viewBox="0 0 29 21"
   version="1.1"
   id="svg8"
   inkscape:version="0.92.3 (2405546, 2018-03-11)"
   sodipodi:docname="Layout.svg">
  <defs
     id="defs2" />
  <sodipodi:namedview
     id="base"
     pagecolor="#ffffff"
     bordercolor="#666666"
     borderopacity="1.0"
     inkscape:pageopacity="0.0"
     inkscape:pageshadow="2"
     inkscape:zoom="3.959798"
     inkscape:cx="102.63704"
     inkscape:cy="24.388638"
     inkscape:document-units="mm"
     inkscape:current-layer="g5478"
     showgrid="false"
     inkscape:window-width="1920"
     inkscape:window-height="1001"
     inkscape:window-x="-9"
     inkscape:window-y="-9"
     inkscape:window-maximized="1" />
  <metadata
     id="metadata5">
    <rdf:RDF>
      <cc:Work
         rdf:about="">
        <dc:format>image/svg+xml</dc:format>
        <dc:type
           rdf:resource="http://purl.org/dc/dcmitype/StillImage" />
        <dc:title></dc:title>
      </cc:Work>
    </rdf:RDF>
  </metadata>
  <g
     inkscape:label="Layer 1"
     inkscape:groupmode="layer"
     id="layer1"
     transform="translate(0,-276)">
    <g
       id="g5478"
       transform="matrix(0.00254,0,0,0.00254,268.54175,159.75522)">
      <g
         id="g4522"
         style="fill:#000000;fill-opacity:1;stroke:#000000;stroke-linecap:round;stroke-linejoin:round;stroke-opacity:1" />
      <g
         id="g4524"
         style="fill:#000000;fill-opacity:0;stroke:#000000;stroke-width:-0.0003937;stroke-linecap:round;stroke-linejoin:round;stroke-opacity:1" />
      <g
         id="g4526"
         style="fill:#848400;fill-opacity:0;stroke:#848400;stroke-width:-0.0003937;stroke-linecap:round;stroke-linejoin:round;stroke-opacity:1" />
      <g
         id="g4546"
         style="fill:#848400;fill-opacity:0;stroke:#848400;stroke-width:826.77197266;stroke-linecap:round;stroke-linejoin:round;stroke-opacity:1"
         transform="rotate(90,-70592.507,-23900.641)">
        <path
           id="path4528"
           d="m 5511,10082 v 0"
           inkscape:connector-curvature="0" />
        <path
           id="path4530"
           d="m 5511,9082 v 0"
           inkscape:connector-curvature="0" />
        <path
           id="path4532"
           d="m 5511,8082 v 0"
           inkscape:connector-curvature="0" />
        <path
           id="path4534"
           d="m 5511,7082 v 0"
           inkscape:connector-curvature="0" />
        <path
           id="path4536"
           d="m 5511,6082 v 0"
           inkscape:connector-curvature="0" />
        <path
           id="path4538"
           d="m 5511,5082 v 0"
           inkscape:connector-curvature="0" />
        <path
           id="path4540"
           d="m 5511,4082 v 0"
           inkscape:connector-curvature="0" />
        <path
           id="path4542"
           d="m 5511,3082 v 0"
           inkscape:connector-curvature="0" />
        <path
           id="path4544"
           d="m 5511,2082 v 0"
           inkscape:connector-curvature="0" />
      </g>
      <g
         id="g4548"
         style="fill:#848400;fill-opacity:0;stroke:#848400;stroke-width:0;stroke-linecap:round;stroke-linejoin:round;stroke-opacity:1" />
      <g
         id="g4552"
         style="fill:#848400;fill-opacity:1;stroke:#848400;stroke-width:0;stroke-linecap:round;stroke-linejoin:round;stroke-opacity:1"
         transform="rotate(90,-70592.507,-23900.641)">
        <polyline
           id="polyline4550"
           points="5925,669 5925,1496 5098,1496 5098,669 5925,669 "
           style="fill-rule:evenodd" />
      </g>
      <g
         id="g4566"
         style="fill:#840000;fill-opacity:1;stroke:#840000;stroke-width:0;stroke-linecap:round;stroke-linejoin:round;stroke-opacity:1"
         transform="rotate(90,-70592.507,-23900.641)">
        <polyline
           id="polyline4554"
           points="3769,5452 3316,5452 3316,4980 3769,4980 3769,5452 "
           style="fill-rule:evenodd" />
        <polyline
           id="polyline4556"
           points="3769,4862 3316,4862 3316,4389 3769,4389 3769,4862 "
           style="fill-rule:evenodd" />
        <polyline
           id="polyline4558"
           points="1742,5866 2194,5866 2194,6338 1742,6338 1742,5866 "
           style="fill-rule:evenodd" />
        <polyline
           id="polyline4560"
           points="1742,5275 2194,5275 2194,5748 1742,5748 1742,5275 "
           style="fill-rule:evenodd" />
        <polyline
           id="polyline4562"
           points="2194,7618 1742,7618 1742,7145 2194,7145 2194,7618 "
           style="fill-rule:evenodd" />
        <polyline
           id="polyline4564"
           points="2194,7027 1742,7027 1742,6555 2194,6555 2194,7027 "
           style="fill-rule:evenodd" />
      </g>
      <g
         id="g4568"
         style="fill:#848400;fill-opacity:1;stroke:#848400;stroke-width:0;stroke-linecap:round;stroke-linejoin:round;stroke-opacity:1" />
      <g
         id="g4570"
         style="fill:#848400;fill-opacity:1;stroke:#848400;stroke-width:826.77197266;stroke-linecap:round;stroke-linejoin:round;stroke-opacity:1" />
      <g
         id="g4580"
         style="fill:#848400;fill-opacity:0;stroke:#848400;stroke-width:826.77197266;stroke-linecap:round;stroke-linejoin:round;stroke-opacity:1"
         transform="rotate(90,-70592.507,-23900.641)">
        <path
           id="path4572"
           d="m 787,5744 v 0"
           inkscape:connector-curvature="0" />
        <path
           id="path4574"
           d="m 787,6744 v 0"
           inkscape:connector-curvature="0" />
        <path
           id="path4576"
           d="m 787,7744 v 0"
           inkscape:connector-curvature="0" />
        <path
           id="path4578"
           d="m 787,8744 v 0"
           inkscape:connector-curvature="0" />
      </g>
      <g
         id="g4582"
         style="fill:#848400;fill-opacity:0;stroke:#848400;stroke-width:0;stroke-linecap:round;stroke-linejoin:round;stroke-opacity:1" />
      <g
         id="g4588"
         style="fill:#848400;fill-opacity:1;stroke:#848400;stroke-width:0;stroke-linecap:round;stroke-linejoin:round;stroke-opacity:1"
         transform="rotate(90,-70592.507,-23900.641)">
        <polyline
           id="polyline4584"
           points="1200,9330 1200,10157 374,10157 374,9330 1200,9330 "
           style="fill-rule:evenodd" />
        <circle
           id="circle4586"
           r="255.90601"
           cy="2332.6799"
           cx="1683.0699" />
      </g>
      <g
         id="g4590"
         style="fill:#848400;fill-opacity:1;stroke:#848400;stroke-width:39.37009811;stroke-linecap:round;stroke-linejoin:round;stroke-opacity:1" />
      <g
         id="g4594"
         style="fill:#848400;fill-opacity:1;stroke:#848400;stroke-width:0;stroke-linecap:round;stroke-linejoin:round;stroke-opacity:1"
         transform="rotate(90,-70592.507,-23900.641)">
        <circle
           id="circle4592"
           r="255.90601"
           cy="2332.6799"
           cx="3415.3501" />
      </g>
      <g
         id="g4596"
         style="fill:#848400;fill-opacity:1;stroke:#848400;stroke-width:39.37009811;stroke-linecap:round;stroke-linejoin:round;stroke-opacity:1" />
      <g
         id="g4598"
         style="fill:#840000;fill-opacity:1;stroke:#840000;stroke-width:39.37009811;stroke-linecap:round;stroke-linejoin:round;stroke-opacity:1" />
      <g
         id="g4646"
         style="fill:#840000;fill-opacity:1;stroke:#840000;stroke-width:0;stroke-linecap:round;stroke-linejoin:round;stroke-opacity:1"
         transform="rotate(90,-70592.507,-23900.641)">
        <polyline
           id="polyline4600"
           points="324,580 1269,580 1269,1722 324,1722 324,580 "
           style="fill-rule:evenodd" />
        <polyline
           id="polyline4602"
           points="324,2746 1269,2746 1269,3887 324,3887 324,2746 "
           style="fill-rule:evenodd" />
        <polyline
           id="polyline4604"
           points="3828,580 4773,580 4773,1722 3828,1722 3828,580 "
           style="fill-rule:evenodd" />
        <polyline
           id="polyline4606"
           points="3828,2746 4773,2746 4773,3887 3828,3887 3828,2746 "
           style="fill-rule:evenodd" />
        <polyline
           id="polyline4608"
           points="1742,2824 2096,2824 2096,3887 1742,3887 1742,2824 "
           style="fill-rule:evenodd" />
        <polyline
           id="polyline4610"
           points="2057,2824 2411,2824 2411,3887 2057,3887 2057,2824 "
           style="fill-rule:evenodd" />
        <polyline
           id="polyline4612"
           points="2372,2824 2726,2824 2726,3887 2372,3887 2372,2824 "
           style="fill-rule:evenodd" />
        <polyline
           id="polyline4614"
           points="2687,2824 3041,2824 3041,3887 2687,3887 2687,2824 "
           style="fill-rule:evenodd" />
        <polyline
           id="polyline4616"
           points="3001,2824 3356,2824 3356,3887 3001,3887 3001,2824 "
           style="fill-rule:evenodd" />
        <polyline
           id="polyline4618"
           points="2614,6635 2614,5928 2942,5928 2942,6635 2614,6635 "
           style="fill-rule:evenodd" />
        <polyline
           id="polyline4620"
           points="2869,6635 2869,5928 3197,5928 3197,6635 2869,6635 "
           style="fill-rule:evenodd" />
        <polyline
           id="polyline4622"
           points="3124,6635 3124,5928 3452,5928 3452,6635 3124,6635 "
           style="fill-rule:evenodd" />
        <polyline
           id="polyline4624"
           points="3379,6635 3379,5928 3707,5928 3707,6635 3379,6635 "
           style="fill-rule:evenodd" />
        <polyline
           id="polyline4626"
           points="3639,6635 3639,5928 3967,5928 3967,6635 3639,6635 "
           style="fill-rule:evenodd" />
        <polyline
           id="polyline4628"
           points="3894,6635 3894,5928 4222,5928 4222,6635 3894,6635 "
           style="fill-rule:evenodd" />
        <polyline
           id="polyline4630"
           points="4149,6635 4149,5928 4477,5928 4477,6635 4149,6635 "
           style="fill-rule:evenodd" />
        <polyline
           id="polyline4632"
           points="4149,8835 4149,8128 4477,8128 4477,8835 4149,8835 "
           style="fill-rule:evenodd" />
        <polyline
           id="polyline4634"
           points="3894,8835 3894,8128 4222,8128 4222,8835 3894,8835 "
           style="fill-rule:evenodd" />
        <polyline
           id="polyline4636"
           points="3639,8835 3639,8128 3967,8128 3967,8835 3639,8835 "
           style="fill-rule:evenodd" />
        <polyline
           id="polyline4638"
           points="3379,8835 3379,8128 3707,8128 3707,8835 3379,8835 "
           style="fill-rule:evenodd" />
        <polyline
           id="polyline4640"
           points="3129,8835 3129,8128 3457,8128 3457,8835 3129,8835 "
           style="fill-rule:evenodd" />
        <polyline
           id="polyline4642"
           points="2869,8835 2869,8128 3197,8128 3197,8835 2869,8835 "
           style="fill-rule:evenodd" />
        <polyline
           id="polyline4644"
           points="2619,8835 2619,8128 2947,8128 2947,8835 2619,8835 "
           style="fill-rule:evenodd" />
      </g>
      <g
         id="g4648"
         style="fill:#000000;fill-opacity:1;stroke:#000000;stroke-width:0;stroke-linecap:round;stroke-linejoin:round;stroke-opacity:1" />
      <g
         id="g4708"
         style="fill:#840000;fill-opacity:1;stroke:#840000;stroke-width:0;stroke-linecap:round;stroke-linejoin:round;stroke-opacity:1"
         transform="rotate(90,-70592.507,-23900.641)">
        <polyline
           id="polyline4650"
           points="3690,5374 3395,5374 3395,5059 3690,5059 3690,5374 "
           style="fill-rule:evenodd" />
        <polyline
           id="polyline4652"
           points="3690,4783 3395,4783 3395,4468 3690,4468 3690,4783 "
           style="fill-rule:evenodd" />
        <polyline
           id="polyline4654"
           points="1820,5944 2116,5944 2116,6259 1820,6259 1820,5944 "
           style="fill-rule:evenodd" />
        <polyline
           id="polyline4656"
           points="1820,5354 2116,5354 2116,5669 1820,5669 1820,5354 "
           style="fill-rule:evenodd" />
        <polyline
           id="polyline4658"
           points="2116,7539 1820,7539 1820,7224 2116,7224 2116,7539 "
           style="fill-rule:evenodd" />
        <polyline
           id="polyline4660"
           points="2116,6948 1820,6948 1820,6633 2116,6633 2116,6948 "
           style="fill-rule:evenodd" />
        <polyline
           id="polyline4662"
           points="403,659 1190,659 1190,1643 403,1643 403,659 "
           style="fill-rule:evenodd" />
        <polyline
           id="polyline4664"
           points="403,2824 1190,2824 1190,3809 403,3809 403,2824 "
           style="fill-rule:evenodd" />
        <polyline
           id="polyline4666"
           points="3907,659 4694,659 4694,1643 3907,1643 3907,659 "
           style="fill-rule:evenodd" />
        <polyline
           id="polyline4668"
           points="3907,2824 4694,2824 4694,3809 3907,3809 3907,2824 "
           style="fill-rule:evenodd" />
        <polyline
           id="polyline4670"
           points="1820,2903 2017,2903 2017,3809 1820,3809 1820,2903 "
           style="fill-rule:evenodd" />
        <polyline
           id="polyline4672"
           points="2135,2903 2332,2903 2332,3809 2135,3809 2135,2903 "
           style="fill-rule:evenodd" />
        <polyline
           id="polyline4674"
           points="2450,2903 2647,2903 2647,3809 2450,3809 2450,2903 "
           style="fill-rule:evenodd" />
        <polyline
           id="polyline4676"
           points="2765,2903 2962,2903 2962,3809 2765,3809 2765,2903 "
           style="fill-rule:evenodd" />
        <polyline
           id="polyline4678"
           points="3080,2903 3277,2903 3277,3809 3080,3809 3080,2903 "
           style="fill-rule:evenodd" />
        <polyline
           id="polyline4680"
           points="2693,6556 2693,6006 2863,6006 2863,6556 2693,6556 "
           style="fill-rule:evenodd" />
        <polyline
           id="polyline4682"
           points="2948,6556 2948,6006 3118,6006 3118,6556 2948,6556 "
           style="fill-rule:evenodd" />
        <polyline
           id="polyline4684"
           points="3203,6556 3203,6006 3373,6006 3373,6556 3203,6556 "
           style="fill-rule:evenodd" />
        <polyline
           id="polyline4686"
           points="3458,6556 3458,6006 3628,6006 3628,6556 3458,6556 "
           style="fill-rule:evenodd" />
        <polyline
           id="polyline4688"
           points="3718,6556 3718,6006 3888,6006 3888,6556 3718,6556 "
           style="fill-rule:evenodd" />
        <polyline
           id="polyline4690"
           points="3973,6556 3973,6006 4143,6006 4143,6556 3973,6556 "
           style="fill-rule:evenodd" />
        <polyline
           id="polyline4692"
           points="4228,6556 4228,6006 4398,6006 4398,6556 4228,6556 "
           style="fill-rule:evenodd" />
        <polyline
           id="polyline4694"
           points="4228,8756 4228,8206 4398,8206 4398,8756 4228,8756 "
           style="fill-rule:evenodd" />
        <polyline
           id="polyline4696"
           points="3973,8756 3973,8206 4143,8206 4143,8756 3973,8756 "
           style="fill-rule:evenodd" />
        <polyline
           id="polyline4698"
           points="3718,8756 3718,8206 3888,8206 3888,8756 3718,8756 "
           style="fill-rule:evenodd" />
        <polyline
           id="polyline4700"
           points="3458,8756 3458,8206 3628,8206 3628,8756 3458,8756 "
           style="fill-rule:evenodd" />
        <polyline
           id="polyline4702"
           points="3208,8756 3208,8206 3378,8206 3378,8756 3208,8756 "
           style="fill-rule:evenodd" />
        <polyline
           id="polyline4704"
           points="2948,8756 2948,8206 3118,8206 3118,8756 2948,8756 "
           style="fill-rule:evenodd" />
        <polyline
           id="polyline4706"
           points="2698,8756 2698,8206 2868,8206 2868,8756 2698,8756 "
           style="fill-rule:evenodd" />
      </g>
      <g
         id="g4710"
         style="fill:#000000;fill-opacity:1;stroke:#000000;stroke-width:0;stroke-linecap:round;stroke-linejoin:round;stroke-opacity:1" />
      <g
         id="g4712"
         style="fill:#008484;fill-opacity:1;stroke:#008484;stroke-width:0;stroke-linecap:round;stroke-linejoin:round;stroke-opacity:1" />
      <g
         id="g4714"
         style="fill:#008484;fill-opacity:0;stroke:#008484;stroke-width:0;stroke-linecap:round;stroke-linejoin:round;stroke-opacity:1" />
      <g
         id="g4718"
         style="fill:#008484;fill-opacity:0;stroke:#008484;stroke-width:49.21260071;stroke-linecap:round;stroke-linejoin:round;stroke-opacity:1"
         transform="rotate(90,-70592.507,-23900.641)">
        <path
           id="path4716"
           d="m 1831,10348 h 319 l 37,-19 19,-18 19,-38 v -75 l -19,-37 -19,-19 -37,-19 h -319"
           inkscape:connector-curvature="0" />
      </g>
      <g
         id="g4722"
         style="fill:#008484;fill-opacity:0;stroke:#008484;stroke-width:39.37009811;stroke-linecap:round;stroke-linejoin:round;stroke-opacity:1"
         transform="rotate(90,-70592.507,-23900.641)">
        <path
           id="path4720"
           d="M 1811,10127 V 9183"
           inkscape:connector-curvature="0" />
      </g>
      <g
         id="g4840"
         style="fill:#008484;fill-opacity:0;stroke:#008484;stroke-width:49.21260071;stroke-linecap:round;stroke-linejoin:round;stroke-opacity:1"
         transform="rotate(90,-70592.507,-23900.641)">
        <path
           id="path4724"
           d="m 2333,10290 h 159 l 19,-9 9,-10 9,-18 v -38 l -9,-19 -9,-9 -19,-9 h -159"
           inkscape:connector-curvature="0" />
        <path
           id="path4726"
           d="m 2529,9971 -93,66"
           inkscape:connector-curvature="0" />
        <path
           id="path4728"
           d="m 2529,10084 h -196 v -75 l 9,-19 9,-9 19,-10 h 28 l 19,10 9,9 10,19 v 75"
           inkscape:connector-curvature="0" />
        <path
           id="path4730"
           d="m 2529,9784 v 112"
           inkscape:connector-curvature="0" />
        <path
           id="path4732"
           d="m 2529,9840 h -196 l 28,19 19,19 9,18"
           inkscape:connector-curvature="0" />
        <path
           id="path4734"
           d="m 2511,9700 9,-10 9,10 -9,9 -9,-9 h 18"
           inkscape:connector-curvature="0" />
        <path
           id="path4736"
           d="m 2333,9568 v -18 l 9,-19 9,-10 19,-9 38,-9 h 47 l 37,9 19,9 9,10 9,19 v 18 l -9,19 -9,9 -19,10 -37,9 h -47 l -38,-9 -19,-10 -9,-9 -9,-19"
           inkscape:connector-curvature="0" />
        <path
           id="path4738"
           d="m 2179,9848 15,15 15,45 v 30 l -15,45 -30,30 -30,15 -60,15 h -45 l -60,-15 -30,-15 -30,-30 -15,-45 v -30 l 15,-45 15,-15"
           inkscape:connector-curvature="0" />
        <path
           id="path4740"
           d="M 2119,9728 V 9578"
           inkscape:connector-curvature="0" />
        <path
           id="path4742"
           d="m 2209,9758 -315,-105 315,-105"
           inkscape:connector-curvature="0" />
        <path
           id="path4744"
           d="m 2209,9443 h -315 l 315,-180 h -315"
           inkscape:connector-curvature="0" />
        <path
           id="path4746"
           d="m 1368,8797 v 94 l 94,9 -10,-9 -9,-19 v -47 l 9,-19 10,-9 19,-10 h 46 l 19,10 10,9 9,19 v 47 l -9,19 -10,9"
           inkscape:connector-curvature="0" />
        <path
           id="path4748"
           d="m 1368,8731 197,-65 -197,-66"
           inkscape:connector-curvature="0" />
        <path
           id="path4750"
           d="m 1377,7925 -9,19 v 28 l 9,28 19,19 19,9 37,10 h 29 l 37,-10 19,-9 19,-19 9,-28 v -19 l -9,-28 -10,-9 h -65 v 37"
           inkscape:connector-curvature="0" />
        <path
           id="path4752"
           d="m 1565,7831 h -197 l 197,-112 h -197"
           inkscape:connector-curvature="0" />
        <path
           id="path4754"
           d="m 1565,7625 h -197 v -47 l 9,-28 19,-19 19,-9 37,-9 h 29 l 37,9 19,9 19,19 9,28 v 47"
           inkscape:connector-curvature="0" />
        <path
           id="path4756"
           d="m 4715,1120 v 93 l 93,10 -9,-10 -9,-18 v -47 l 9,-19 9,-9 19,-10 h 47 l 19,10 9,9 9,19 v 47 l -9,18 -9,10"
           inkscape:connector-curvature="0" />
        <path
           id="path4758"
           d="m 4715,1054 196,-66 -196,-65"
           inkscape:connector-curvature="0" />
        <path
           id="path4760"
           d="m 4911,2198 -93,65"
           inkscape:connector-curvature="0" />
        <path
           id="path4762"
           d="m 4911,2310 h -196 v -75 l 9,-19 9,-9 19,-9 h 28 l 19,9 9,9 10,19 v 75"
           inkscape:connector-curvature="0" />
        <path
           id="path4764"
           d="m 4893,2001 9,9 9,28 v 19 l -9,28 -19,19 -18,9 -38,10 h -28 l -38,-10 -18,-9 -19,-19 -9,-28 v -19 l 9,-28 9,-9"
           inkscape:connector-curvature="0" />
        <path
           id="path4766"
           d="m 4715,1879 v -19 l 9,-19 9,-9 19,-9 38,-10 h 46 l 38,10 19,9 9,9 9,19 v 19 l -9,19 -9,9 -19,9 -38,10 h -46 l -38,-10 -19,-9 -9,-9 -9,-19"
           inkscape:connector-curvature="0" />
        <path
           id="path4768"
           d="m 4911,3280 -93,66"
           inkscape:connector-curvature="0" />
        <path
           id="path4770"
           d="m 4911,3393 h -196 v -75 l 9,-19 9,-9 19,-10 h 28 l 19,10 9,9 10,19 v 75"
           inkscape:connector-curvature="0" />
        <path
           id="path4772"
           d="m 4893,3083 9,10 9,28 v 19 l -9,28 -19,19 -18,9 -38,9 h -28 l -38,-9 -18,-9 -19,-19 -9,-28 v -19 l 9,-28 9,-10"
           inkscape:connector-curvature="0" />
        <path
           id="path4774"
           d="m 4911,2896 v 112"
           inkscape:connector-curvature="0" />
        <path
           id="path4776"
           d="m 4911,2952 h -196 l 28,19 18,19 10,18"
           inkscape:connector-curvature="0" />
        <path
           id="path4778"
           d="m 4911,4265 -93,65"
           inkscape:connector-curvature="0" />
        <path
           id="path4780"
           d="m 4911,4377 h -196 v -75 l 9,-19 9,-9 19,-9 h 28 l 19,9 9,9 10,19 v 75"
           inkscape:connector-curvature="0" />
        <path
           id="path4782"
           d="m 4893,4068 9,9 9,28 v 19 l -9,28 -19,19 -18,9 -38,10 h -28 l -38,-10 -18,-9 -19,-19 -9,-28 v -19 l 9,-28 9,-9"
           inkscape:connector-curvature="0" />
        <path
           id="path4784"
           d="m 4733,3993 -9,-10 -9,-18 v -47 l 9,-19 9,-9 19,-10 h 19 l 28,10 112,112 v -122"
           inkscape:connector-curvature="0" />
        <path
           id="path4786"
           d="m 4911,5249 -93,65"
           inkscape:connector-curvature="0" />
        <path
           id="path4788"
           d="m 4911,5361 h -196 v -75 l 9,-18 9,-10 19,-9 h 28 l 19,9 9,10 10,18 v 75"
           inkscape:connector-curvature="0" />
        <path
           id="path4790"
           d="m 4893,5052 9,9 9,28 v 19 l -9,28 -19,19 -18,9 -38,10 h -28 l -38,-10 -18,-9 -19,-19 -9,-28 v -19 l 9,-28 9,-9"
           inkscape:connector-curvature="0" />
        <path
           id="path4792"
           d="m 4715,4986 v -121 l 75,65 v -28 l 9,-19 9,-9 19,-9 h 47 l 19,9 9,9 9,19 v 56 l -9,19 -9,9"
           inkscape:connector-curvature="0" />
        <path
           id="path4794"
           d="m 4911,6233 -93,66"
           inkscape:connector-curvature="0" />
        <path
           id="path4796"
           d="m 4911,6346 h -196 v -75 l 9,-19 9,-10 19,-9 h 28 l 19,9 9,10 10,19 v 75"
           inkscape:connector-curvature="0" />
        <path
           id="path4798"
           d="m 4893,6036 9,10 9,28 v 18 l -9,29 -19,18 -18,10 -38,9 h -28 l -38,-9 -18,-10 -19,-18 -9,-29 v -18 l 9,-28 9,-10"
           inkscape:connector-curvature="0" />
        <path
           id="path4800"
           d="m 4780,5868 h 131"
           inkscape:connector-curvature="0" />
        <path
           id="path4802"
           d="m 4705,5914 141,47 v -122"
           inkscape:connector-curvature="0" />
        <path
           id="path4804"
           d="m 4911,7217 -93,66"
           inkscape:connector-curvature="0" />
        <path
           id="path4806"
           d="m 4911,7330 h -196 v -75 l 9,-19 9,-9 19,-10 h 28 l 19,10 9,9 10,19 v 75"
           inkscape:connector-curvature="0" />
        <path
           id="path4808"
           d="m 4893,7020 9,10 9,28 v 19 l -9,28 -19,19 -18,9 -38,9 h -28 l -38,-9 -18,-9 -19,-19 -9,-28 v -19 l 9,-28 9,-10"
           inkscape:connector-curvature="0" />
        <path
           id="path4810"
           d="m 4715,6842 v 94 l 93,10 -9,-10 -9,-19 v -46 l 9,-19 9,-10 19,-9 h 47 l 19,9 9,10 9,19 v 46 l -9,19 -9,10"
           inkscape:connector-curvature="0" />
        <path
           id="path4812"
           d="m 4911,8286 -93,66"
           inkscape:connector-curvature="0" />
        <path
           id="path4814"
           d="m 4911,8398 h -196 v -75 l 9,-18 9,-10 19,-9 h 28 l 19,9 9,10 10,18 v 75"
           inkscape:connector-curvature="0" />
        <path
           id="path4816"
           d="m 4855,8211 v -94"
           inkscape:connector-curvature="0" />
        <path
           id="path4818"
           d="m 4911,8230 -196,-66 196,-66"
           inkscape:connector-curvature="0" />
        <path
           id="path4820"
           d="m 4780,7949 h 131"
           inkscape:connector-curvature="0" />
        <path
           id="path4822"
           d="m 4705,7995 141,47 v -122"
           inkscape:connector-curvature="0" />
        <path
           id="path4824"
           d="m 4911,9270 -93,66"
           inkscape:connector-curvature="0" />
        <path
           id="path4826"
           d="m 4911,9383 h -196 v -75 l 9,-19 9,-9 19,-10 h 28 l 19,10 9,9 10,19 v 75"
           inkscape:connector-curvature="0" />
        <path
           id="path4828"
           d="m 4855,9195 v -94"
           inkscape:connector-curvature="0" />
        <path
           id="path4830"
           d="m 4911,9214 -196,-66 196,-65"
           inkscape:connector-curvature="0" />
        <path
           id="path4832"
           d="m 4715,8923 v 94 l 93,9 -9,-9 -9,-19 v -46 l 9,-19 9,-10 19,-9 h 47 l 19,9 9,10 9,19 v 46 l -9,19 -9,9"
           inkscape:connector-curvature="0" />
        <path
           id="path4834"
           d="m 4724,10287 -9,19 v 28 l 9,28 19,19 18,9 38,10 h 28 l 38,-10 18,-9 19,-19 9,-28 v -19 l -9,-28 -9,-9 h -66 v 37"
           inkscape:connector-curvature="0" />
        <path
           id="path4836"
           d="m 4911,10194 h -196 l 196,-113 h -196"
           inkscape:connector-curvature="0" />
        <path
           id="path4838"
           d="m 4911,9987 h -196 v -47 l 9,-28 19,-18 18,-10 38,-9 h 28 l 38,9 18,10 19,18 9,28 v 47"
           inkscape:connector-curvature="0" />
      </g>
      <g
         id="g4842"
         style="fill:#008484;fill-opacity:0;stroke:#008484;stroke-width:59.05509949;stroke-linecap:round;stroke-linejoin:round;stroke-opacity:1" />
      <g
         id="g4846"
         style="fill:#008484;fill-opacity:1;stroke:#008484;stroke-width:59.05509949;stroke-linecap:round;stroke-linejoin:round;stroke-opacity:1"
         transform="rotate(90,-70592.507,-23900.641)">
        <polyline
           id="polyline4844"
           points="393,10629 393,10236 787,10629 393,10629 "
           style="fill-rule:evenodd" />
      </g>
      <g
         id="g4848"
         style="fill:#008484;fill-opacity:1;stroke:#008484;stroke-width:47.24409866;stroke-linecap:round;stroke-linejoin:round;stroke-opacity:1" />
      <g
         id="g4884"
         style="fill:#008484;fill-opacity:0;stroke:#008484;stroke-width:47.24409866;stroke-linecap:round;stroke-linejoin:round;stroke-opacity:1"
         transform="rotate(90,-70592.507,-23900.641)">
        <path
           id="path4850"
           d="M 3307,5059 V 4783"
           inkscape:connector-curvature="0" />
        <path
           id="path4852"
           d="m 3779,4783 v 276"
           inkscape:connector-curvature="0" />
        <path
           id="path4854"
           d="M 1732,5944 V 5669"
           inkscape:connector-curvature="0" />
        <path
           id="path4856"
           d="m 2204,5669 v 275"
           inkscape:connector-curvature="0" />
        <path
           id="path4858"
           d="M 1732,7224 V 6948"
           inkscape:connector-curvature="0" />
        <path
           id="path4860"
           d="m 2204,6948 v 276"
           inkscape:connector-curvature="0" />
        <path
           id="path4862"
           d="M 1311,10267 H 787"
           inkscape:connector-curvature="0" />
        <path
           id="path4864"
           d="m 1311,9744 v 523"
           inkscape:connector-curvature="0" />
        <path
           id="path4866"
           d="M 1311,9244 H 263"
           inkscape:connector-curvature="0" />
        <path
           id="path4868"
           d="M 263,9244 V 5220"
           inkscape:connector-curvature="0" />
        <path
           id="path4870"
           d="M 1311,9244 V 5220"
           inkscape:connector-curvature="0" />
        <path
           id="path4872"
           d="M 1311,5220 H 263"
           inkscape:connector-curvature="0" />
        <path
           id="path4874"
           d="M 4064,3809 V 187"
           inkscape:connector-curvature="0" />
        <path
           id="path4876"
           d="M 1033,3809 H 4064"
           inkscape:connector-curvature="0" />
        <path
           id="path4878"
           d="M 1033,187 V 3809"
           inkscape:connector-curvature="0" />
        <path
           id="path4880"
           d="M 4064,187 H 1033"
           inkscape:connector-curvature="0" />
        <path
           id="path4882"
           d="M 4064,580 H 1033"
           inkscape:connector-curvature="0" />
      </g>
      <g
         id="g4896"
         style="fill:#008484;fill-opacity:0;stroke:#008484;stroke-width:59.05509949;stroke-linecap:round;stroke-linejoin:round;stroke-opacity:1"
         transform="rotate(90,-70592.507,-23900.641)">
        <circle
           id="circle4886"
           r="150"
           cy="7831.8901"
           cx="2843.3101" />
        <path
           id="path4888"
           d="M 2593,8081 V 6681"
           inkscape:connector-curvature="0" />
        <path
           id="path4890"
           d="M 4493,8081 H 2593"
           inkscape:connector-curvature="0" />
        <path
           id="path4892"
           d="M 4493,6681 V 8081"
           inkscape:connector-curvature="0" />
        <path
           id="path4894"
           d="M 2593,6681 H 4493"
           inkscape:connector-curvature="0" />
      </g>
      <g
         id="g4928"
         style="fill:#008484;fill-opacity:0;stroke:#008484;stroke-width:49.21260071;stroke-linecap:round;stroke-linejoin:round;stroke-opacity:1"
         transform="rotate(90,-70592.507,-23900.641)">
        <path
           id="path4898"
           d="m 3219,4954 10,9 9,28 v 19 l -9,28 -19,19 -19,9 -37,9 h -28 l -38,-9 -19,-9 -18,-19 -10,-28 v -19 l 10,-28 9,-9"
           inkscape:connector-curvature="0" />
        <path
           id="path4900"
           d="m 3238,4766 v 113"
           inkscape:connector-curvature="0" />
        <path
           id="path4902"
           d="m 3238,4822 h -197 l 28,19 19,19 10,19"
           inkscape:connector-curvature="0" />
        <path
           id="path4904"
           d="m 1645,5839 9,10 9,28 v 19 l -9,28 -19,19 -19,9 -37,9 h -28 l -38,-9 -18,-9 -19,-19 -9,-28 v -19 l 9,-28 9,-10"
           inkscape:connector-curvature="0" />
        <path
           id="path4906"
           d="m 1485,5764 -9,-9 -9,-19 v -47 l 9,-18 9,-10 19,-9 h 19 l 28,9 112,113 v -122"
           inkscape:connector-curvature="0" />
        <path
           id="path4908"
           d="m 1645,7119 9,9 9,28 v 19 l -9,28 -19,19 -19,9 -37,10 h -28 l -38,-10 -18,-9 -19,-19 -9,-28 v -19 l 9,-28 9,-9"
           inkscape:connector-curvature="0" />
        <path
           id="path4910"
           d="m 1467,7053 v -122 l 74,66 v -28 l 10,-19 9,-9 19,-10 h 47 l 19,10 9,9 9,19 v 56 l -9,19 -9,9"
           inkscape:connector-curvature="0" />
        <path
           id="path4912"
           d="m 1073,10597 h 140 l 29,9 18,19 10,28 v 19"
           inkscape:connector-curvature="0" />
        <path
           id="path4914"
           d="m 1270,10400 v 112"
           inkscape:connector-curvature="0" />
        <path
           id="path4916"
           d="m 1270,10456 h -197 l 28,19 19,19 9,18"
           inkscape:connector-curvature="0" />
        <path
           id="path4918"
           d="m 581,2034 h 140 l 28,9 19,19 10,28 v 19"
           inkscape:connector-curvature="0" />
        <path
           id="path4920"
           d="m 599,1949 -9,-9 -9,-19 v -47 l 9,-18 9,-10 19,-9 h 19 l 28,9 113,113 v -122"
           inkscape:connector-curvature="0" />
        <path
           id="path4922"
           d="m 2254,8712 h 159 l 19,-9 9,-9 10,-19 v -38 l -10,-18 -9,-10 -19,-9 h -159"
           inkscape:connector-curvature="0" />
        <path
           id="path4924"
           d="m 2451,8403 v 113"
           inkscape:connector-curvature="0" />
        <path
           id="path4926"
           d="m 2451,8459 h -197 l 28,19 19,19 9,19"
           inkscape:connector-curvature="0" />
      </g>
      <g
         id="g4930"
         style="fill:#000000;fill-opacity:0;stroke:#000000;stroke-width:49.21260071;stroke-linecap:round;stroke-linejoin:round;stroke-opacity:1" />
      <g
         id="g4932"
         style="fill:#c2c2c2;fill-opacity:0;stroke:#c2c2c2;stroke-width:49.21260071;stroke-linecap:round;stroke-linejoin:round;stroke-opacity:1" />
      <g
         id="g4974"
         style="fill:#c2c2c2;fill-opacity:0;stroke:#c2c2c2;stroke-width:19.68499947;stroke-linecap:round;stroke-linejoin:round;stroke-opacity:1"
         transform="rotate(90,-70592.507,-23900.641)">
        <path
           id="path4934"
           d="M 3287,5472 V 4370"
           inkscape:connector-curvature="0" />
        <path
           id="path4936"
           d="m 3287,5472 h 512"
           inkscape:connector-curvature="0" />
        <path
           id="path4938"
           d="M 3799,4370 H 3287"
           inkscape:connector-curvature="0" />
        <path
           id="path4940"
           d="M 3799,4370 V 5472"
           inkscape:connector-curvature="0" />
        <path
           id="path4942"
           d="M 1712,6358 V 5255"
           inkscape:connector-curvature="0" />
        <path
           id="path4944"
           d="m 1712,6358 h 512"
           inkscape:connector-curvature="0" />
        <path
           id="path4946"
           d="M 2224,5255 H 1712"
           inkscape:connector-curvature="0" />
        <path
           id="path4948"
           d="M 2224,5255 V 6358"
           inkscape:connector-curvature="0" />
        <path
           id="path4950"
           d="M 1712,7637 V 6535"
           inkscape:connector-curvature="0" />
        <path
           id="path4952"
           d="m 1712,7637 h 512"
           inkscape:connector-curvature="0" />
        <path
           id="path4954"
           d="M 2224,6535 H 1712"
           inkscape:connector-curvature="0" />
        <path
           id="path4956"
           d="M 2224,6535 V 7637"
           inkscape:connector-curvature="0" />
        <path
           id="path4958"
           d="M 78,10452 H 1496"
           inkscape:connector-curvature="0" />
        <path
           id="path4960"
           d="m 78,5039 v 5413"
           inkscape:connector-curvature="0" />
        <path
           id="path4962"
           d="M 1496,5039 H 78"
           inkscape:connector-curvature="0" />
        <path
           id="path4964"
           d="M 1496,10452 V 5039"
           inkscape:connector-curvature="0" />
        <path
           id="path4966"
           d="M 305,88 H 4793"
           inkscape:connector-curvature="0" />
        <path
           id="path4968"
           d="M 305,3907 V 88"
           inkscape:connector-curvature="0" />
        <path
           id="path4970"
           d="M 4793,3907 H 305"
           inkscape:connector-curvature="0" />
        <path
           id="path4972"
           d="M 4793,88 V 3907"
           inkscape:connector-curvature="0" />
      </g>
      <g
         id="g4976"
         style="fill:#000000;fill-opacity:0;stroke:#000000;stroke-width:19.68499947;stroke-linecap:round;stroke-linejoin:round;stroke-opacity:1" />
      <g
         id="g4978"
         style="fill:#848484;fill-opacity:0;stroke:#848484;stroke-width:19.68499947;stroke-linecap:round;stroke-linejoin:round;stroke-opacity:1" />
      <g
         id="g5014"
         style="fill:#848484;fill-opacity:0;stroke:#848484;stroke-width:39.37009811;stroke-linecap:round;stroke-linejoin:round;stroke-opacity:1"
         transform="rotate(90,-70592.507,-23900.641)">
        <path
           id="path4980"
           d="M 3700,5236 H 3385"
           inkscape:connector-curvature="0" />
        <path
           id="path4982"
           d="m 3700,4606 v 630"
           inkscape:connector-curvature="0" />
        <path
           id="path4984"
           d="m 3385,4606 h 315"
           inkscape:connector-curvature="0" />
        <path
           id="path4986"
           d="M 3385,5236 V 4606"
           inkscape:connector-curvature="0" />
        <path
           id="path4988"
           d="m 2125,5492 v 630"
           inkscape:connector-curvature="0" />
        <path
           id="path4990"
           d="M 2125,6122 H 1811"
           inkscape:connector-curvature="0" />
        <path
           id="path4992"
           d="M 1811,6122 V 5492"
           inkscape:connector-curvature="0" />
        <path
           id="path4994"
           d="m 1811,5492 h 314"
           inkscape:connector-curvature="0" />
        <path
           id="path4996"
           d="M 2125,7401 H 1811"
           inkscape:connector-curvature="0" />
        <path
           id="path4998"
           d="m 2125,6771 v 630"
           inkscape:connector-curvature="0" />
        <path
           id="path5000"
           d="m 1811,6771 h 314"
           inkscape:connector-curvature="0" />
        <path
           id="path5002"
           d="M 1811,7401 V 6771"
           inkscape:connector-curvature="0" />
        <path
           id="path5004"
           d="m 1287,9994 -250,250"
           inkscape:connector-curvature="0" />
        <path
           id="path5006"
           d="M 1287,5244 V 9994"
           inkscape:connector-curvature="0" />
        <path
           id="path5008"
           d="M 287,5244 H 1287"
           inkscape:connector-curvature="0" />
        <path
           id="path5010"
           d="M 287,10244 V 5244"
           inkscape:connector-curvature="0" />
        <path
           id="path5012"
           d="M 1037,10244 H 287"
           inkscape:connector-curvature="0" />
      </g>
      <g
         id="g5140"
         style="fill:#000000;fill-opacity:0;stroke:#000000;stroke-width:49.21260071;stroke-linecap:round;stroke-linejoin:round;stroke-opacity:1" />
      <g
         id="g5142"
         style="fill:#c2c200;fill-opacity:0;stroke:#c2c200;stroke-width:49.21260071;stroke-linecap:round;stroke-linejoin:round;stroke-opacity:1" />
      <g
         id="g5152"
         style="fill:#c2c200;fill-opacity:0;stroke:#c2c200;stroke-width:78.74019623;stroke-linecap:round;stroke-linejoin:round;stroke-opacity:1"
         transform="rotate(90,-70829.262,-25505.31)">
        <path
           id="path5144"
           d="m 1563.9149,-1448.4239 v 10532"
           inkscape:connector-curvature="0" />
        <path
           id="path5146"
           d="m 7666.9149,-1448.4239 h -6103"
           inkscape:connector-curvature="0" />
        <path
           id="path5148"
           d="m 7666.9149,9083.5761 v -10532"
           inkscape:connector-curvature="0" />
        <path
           id="path5150"
           d="m 1563.9149,9083.5761 h 6103"
           inkscape:connector-curvature="0" />
      </g>
    </g>
  </g>
</svg>
