<?xml version="1.0" standalone="no"?>
 <!DOCTYPE svg PUBLIC "-//W3C//DTD SVG 1.1//EN" 
 "http://www.w3.org/Graphics/SVG/1.1/DTD/svg11.dtd"> 
<svg xmlns="http://www.w3.org/2000/svg" version="1.1" 
    width="1.60782cm" height="2.78384cm" viewBox="0 0 6330 10960 ">
<title>SVG Picture created as pcb_relay_main-brd.svg date 2018/10/30 07:01:10 </title>
  <desc>Picture generated by PCBNEW </desc>
<g style="fill:#000000; fill-opacity:1;stroke:#000000; stroke-opacity:1;
stroke-linecap:round; stroke-linejoin:round; "
 transform="translate(0 0) scale(1 1)">
</g>
<g style="fill:#000000; fill-opacity:0.0; 
stroke:#000000; stroke-width:-0.000393701; stroke-opacity:1; 
stroke-linecap:round; stroke-linejoin:round;">
</g>
<g style="fill:#848400; fill-opacity:0.0; 
stroke:#848400; stroke-width:-0.000393701; stroke-opacity:1; 
stroke-linecap:round; stroke-linejoin:round;">
</g>
<g style="fill:#848400; fill-opacity:0.0; 
stroke:#848400; stroke-width:826.772; stroke-opacity:1; 
stroke-linecap:round; stroke-linejoin:round;">
<path d="M5511 10082
L5511 10082
" />
<path d="M5511 9082
L5511 9082
" />
<path d="M5511 8082
L5511 8082
" />
<path d="M5511 7082
L5511 7082
" />
<path d="M5511 6082
L5511 6082
" />
<path d="M5511 5082
L5511 5082
" />
<path d="M5511 4082
L5511 4082
" />
<path d="M5511 3082
L5511 3082
" />
<path d="M5511 2082
L5511 2082
" />
</g>
<g style="fill:#848400; fill-opacity:0.0; 
stroke:#848400; stroke-width:0; stroke-opacity:1; 
stroke-linecap:round; stroke-linejoin:round;">
</g>
<g style="fill:#848400; fill-opacity:1.0; 
stroke:#848400; stroke-width:0; stroke-opacity:1; 
stroke-linecap:round; stroke-linejoin:round;">
<polyline style="fill-rule:evenodd;"
points="5925,669
5925,1496
5098,1496
5098,669
5925,669
" /> 
</g>
<g style="fill:#840000; fill-opacity:1.0; 
stroke:#840000; stroke-width:0; stroke-opacity:1; 
stroke-linecap:round; stroke-linejoin:round;">
<polyline style="fill-rule:evenodd;"
points="3769,5452
3316,5452
3316,4980
3769,4980
3769,5452
" /> 
<polyline style="fill-rule:evenodd;"
points="3769,4862
3316,4862
3316,4389
3769,4389
3769,4862
" /> 
<polyline style="fill-rule:evenodd;"
points="1742,5866
2194,5866
2194,6338
1742,6338
1742,5866
" /> 
<polyline style="fill-rule:evenodd;"
points="1742,5275
2194,5275
2194,5748
1742,5748
1742,5275
" /> 
<polyline style="fill-rule:evenodd;"
points="2194,7618
1742,7618
1742,7145
2194,7145
2194,7618
" /> 
<polyline style="fill-rule:evenodd;"
points="2194,7027
1742,7027
1742,6555
2194,6555
2194,7027
" /> 
</g>
<g style="fill:#848400; fill-opacity:1.0; 
stroke:#848400; stroke-width:0; stroke-opacity:1; 
stroke-linecap:round; stroke-linejoin:round;">
</g>
<g style="fill:#848400; fill-opacity:1.0; 
stroke:#848400; stroke-width:826.772; stroke-opacity:1; 
stroke-linecap:round; stroke-linejoin:round;">
</g>
<g style="fill:#848400; fill-opacity:0.0; 
stroke:#848400; stroke-width:826.772; stroke-opacity:1; 
stroke-linecap:round; stroke-linejoin:round;">
<path d="M787 5744
L787 5744
" />
<path d="M787 6744
L787 6744
" />
<path d="M787 7744
L787 7744
" />
<path d="M787 8744
L787 8744
" />
</g>
<g style="fill:#848400; fill-opacity:0.0; 
stroke:#848400; stroke-width:0; stroke-opacity:1; 
stroke-linecap:round; stroke-linejoin:round;">
</g>
<g style="fill:#848400; fill-opacity:1.0; 
stroke:#848400; stroke-width:0; stroke-opacity:1; 
stroke-linecap:round; stroke-linejoin:round;">
<polyline style="fill-rule:evenodd;"
points="1200,9330
1200,10157
374,10157
374,9330
1200,9330
" /> 
<circle cx="1683.07" cy="2332.68" r="255.906" /> 
</g>
<g style="fill:#848400; fill-opacity:1.0; 
stroke:#848400; stroke-width:39.3701; stroke-opacity:1; 
stroke-linecap:round; stroke-linejoin:round;">
</g>
<g style="fill:#848400; fill-opacity:1.0; 
stroke:#848400; stroke-width:0; stroke-opacity:1; 
stroke-linecap:round; stroke-linejoin:round;">
<circle cx="3415.35" cy="2332.68" r="255.906" /> 
</g>
<g style="fill:#848400; fill-opacity:1.0; 
stroke:#848400; stroke-width:39.3701; stroke-opacity:1; 
stroke-linecap:round; stroke-linejoin:round;">
</g>
<g style="fill:#840000; fill-opacity:1.0; 
stroke:#840000; stroke-width:39.3701; stroke-opacity:1; 
stroke-linecap:round; stroke-linejoin:round;">
</g>
<g style="fill:#840000; fill-opacity:1.0; 
stroke:#840000; stroke-width:0; stroke-opacity:1; 
stroke-linecap:round; stroke-linejoin:round;">
<polyline style="fill-rule:evenodd;"
points="324,580
1269,580
1269,1722
324,1722
324,580
" /> 
<polyline style="fill-rule:evenodd;"
points="324,2746
1269,2746
1269,3887
324,3887
324,2746
" /> 
<polyline style="fill-rule:evenodd;"
points="3828,580
4773,580
4773,1722
3828,1722
3828,580
" /> 
<polyline style="fill-rule:evenodd;"
points="3828,2746
4773,2746
4773,3887
3828,3887
3828,2746
" /> 
<polyline style="fill-rule:evenodd;"
points="1742,2824
2096,2824
2096,3887
1742,3887
1742,2824
" /> 
<polyline style="fill-rule:evenodd;"
points="2057,2824
2411,2824
2411,3887
2057,3887
2057,2824
" /> 
<polyline style="fill-rule:evenodd;"
points="2372,2824
2726,2824
2726,3887
2372,3887
2372,2824
" /> 
<polyline style="fill-rule:evenodd;"
points="2687,2824
3041,2824
3041,3887
2687,3887
2687,2824
" /> 
<polyline style="fill-rule:evenodd;"
points="3001,2824
3356,2824
3356,3887
3001,3887
3001,2824
" /> 
<polyline style="fill-rule:evenodd;"
points="2614,6635
2614,5928
2942,5928
2942,6635
2614,6635
" /> 
<polyline style="fill-rule:evenodd;"
points="2869,6635
2869,5928
3197,5928
3197,6635
2869,6635
" /> 
<polyline style="fill-rule:evenodd;"
points="3124,6635
3124,5928
3452,5928
3452,6635
3124,6635
" /> 
<polyline style="fill-rule:evenodd;"
points="3379,6635
3379,5928
3707,5928
3707,6635
3379,6635
" /> 
<polyline style="fill-rule:evenodd;"
points="3639,6635
3639,5928
3967,5928
3967,6635
3639,6635
" /> 
<polyline style="fill-rule:evenodd;"
points="3894,6635
3894,5928
4222,5928
4222,6635
3894,6635
" /> 
<polyline style="fill-rule:evenodd;"
points="4149,6635
4149,5928
4477,5928
4477,6635
4149,6635
" /> 
<polyline style="fill-rule:evenodd;"
points="4149,8835
4149,8128
4477,8128
4477,8835
4149,8835
" /> 
<polyline style="fill-rule:evenodd;"
points="3894,8835
3894,8128
4222,8128
4222,8835
3894,8835
" /> 
<polyline style="fill-rule:evenodd;"
points="3639,8835
3639,8128
3967,8128
3967,8835
3639,8835
" /> 
<polyline style="fill-rule:evenodd;"
points="3379,8835
3379,8128
3707,8128
3707,8835
3379,8835
" /> 
<polyline style="fill-rule:evenodd;"
points="3129,8835
3129,8128
3457,8128
3457,8835
3129,8835
" /> 
<polyline style="fill-rule:evenodd;"
points="2869,8835
2869,8128
3197,8128
3197,8835
2869,8835
" /> 
<polyline style="fill-rule:evenodd;"
points="2619,8835
2619,8128
2947,8128
2947,8835
2619,8835
" /> 
</g>
<g style="fill:#000000; fill-opacity:1.0; 
stroke:#000000; stroke-width:0; stroke-opacity:1; 
stroke-linecap:round; stroke-linejoin:round;">
</g>
<g style="fill:#840000; fill-opacity:1.0; 
stroke:#840000; stroke-width:0; stroke-opacity:1; 
stroke-linecap:round; stroke-linejoin:round;">
<polyline style="fill-rule:evenodd;"
points="3690,5374
3395,5374
3395,5059
3690,5059
3690,5374
" /> 
<polyline style="fill-rule:evenodd;"
points="3690,4783
3395,4783
3395,4468
3690,4468
3690,4783
" /> 
<polyline style="fill-rule:evenodd;"
points="1820,5944
2116,5944
2116,6259
1820,6259
1820,5944
" /> 
<polyline style="fill-rule:evenodd;"
points="1820,5354
2116,5354
2116,5669
1820,5669
1820,5354
" /> 
<polyline style="fill-rule:evenodd;"
points="2116,7539
1820,7539
1820,7224
2116,7224
2116,7539
" /> 
<polyline style="fill-rule:evenodd;"
points="2116,6948
1820,6948
1820,6633
2116,6633
2116,6948
" /> 
<polyline style="fill-rule:evenodd;"
points="403,659
1190,659
1190,1643
403,1643
403,659
" /> 
<polyline style="fill-rule:evenodd;"
points="403,2824
1190,2824
1190,3809
403,3809
403,2824
" /> 
<polyline style="fill-rule:evenodd;"
points="3907,659
4694,659
4694,1643
3907,1643
3907,659
" /> 
<polyline style="fill-rule:evenodd;"
points="3907,2824
4694,2824
4694,3809
3907,3809
3907,2824
" /> 
<polyline style="fill-rule:evenodd;"
points="1820,2903
2017,2903
2017,3809
1820,3809
1820,2903
" /> 
<polyline style="fill-rule:evenodd;"
points="2135,2903
2332,2903
2332,3809
2135,3809
2135,2903
" /> 
<polyline style="fill-rule:evenodd;"
points="2450,2903
2647,2903
2647,3809
2450,3809
2450,2903
" /> 
<polyline style="fill-rule:evenodd;"
points="2765,2903
2962,2903
2962,3809
2765,3809
2765,2903
" /> 
<polyline style="fill-rule:evenodd;"
points="3080,2903
3277,2903
3277,3809
3080,3809
3080,2903
" /> 
<polyline style="fill-rule:evenodd;"
points="2693,6556
2693,6006
2863,6006
2863,6556
2693,6556
" /> 
<polyline style="fill-rule:evenodd;"
points="2948,6556
2948,6006
3118,6006
3118,6556
2948,6556
" /> 
<polyline style="fill-rule:evenodd;"
points="3203,6556
3203,6006
3373,6006
3373,6556
3203,6556
" /> 
<polyline style="fill-rule:evenodd;"
points="3458,6556
3458,6006
3628,6006
3628,6556
3458,6556
" /> 
<polyline style="fill-rule:evenodd;"
points="3718,6556
3718,6006
3888,6006
3888,6556
3718,6556
" /> 
<polyline style="fill-rule:evenodd;"
points="3973,6556
3973,6006
4143,6006
4143,6556
3973,6556
" /> 
<polyline style="fill-rule:evenodd;"
points="4228,6556
4228,6006
4398,6006
4398,6556
4228,6556
" /> 
<polyline style="fill-rule:evenodd;"
points="4228,8756
4228,8206
4398,8206
4398,8756
4228,8756
" /> 
<polyline style="fill-rule:evenodd;"
points="3973,8756
3973,8206
4143,8206
4143,8756
3973,8756
" /> 
<polyline style="fill-rule:evenodd;"
points="3718,8756
3718,8206
3888,8206
3888,8756
3718,8756
" /> 
<polyline style="fill-rule:evenodd;"
points="3458,8756
3458,8206
3628,8206
3628,8756
3458,8756
" /> 
<polyline style="fill-rule:evenodd;"
points="3208,8756
3208,8206
3378,8206
3378,8756
3208,8756
" /> 
<polyline style="fill-rule:evenodd;"
points="2948,8756
2948,8206
3118,8206
3118,8756
2948,8756
" /> 
<polyline style="fill-rule:evenodd;"
points="2698,8756
2698,8206
2868,8206
2868,8756
2698,8756
" /> 
</g>
<g style="fill:#000000; fill-opacity:1.0; 
stroke:#000000; stroke-width:0; stroke-opacity:1; 
stroke-linecap:round; stroke-linejoin:round;">
</g>
<g style="fill:#008484; fill-opacity:1.0; 
stroke:#008484; stroke-width:0; stroke-opacity:1; 
stroke-linecap:round; stroke-linejoin:round;">
</g>
<g style="fill:#008484; fill-opacity:0.0; 
stroke:#008484; stroke-width:0; stroke-opacity:1; 
stroke-linecap:round; stroke-linejoin:round;">
</g>
<g style="fill:#008484; fill-opacity:0.0; 
stroke:#008484; stroke-width:49.2126; stroke-opacity:1; 
stroke-linecap:round; stroke-linejoin:round;">
<path d="M1831 10348
L2150 10348
L2187 10329
L2206 10311
L2225 10273
L2225 10198
L2206 10161
L2187 10142
L2150 10123
L1831 10123
" />
</g>
<g style="fill:#008484; fill-opacity:0.0; 
stroke:#008484; stroke-width:39.3701; stroke-opacity:1; 
stroke-linecap:round; stroke-linejoin:round;">
<path d="M1811 10127
L1811 9183
" />
</g>
<g style="fill:#008484; fill-opacity:0.0; 
stroke:#008484; stroke-width:49.2126; stroke-opacity:1; 
stroke-linecap:round; stroke-linejoin:round;">
<path d="M2333 10290
L2492 10290
L2511 10281
L2520 10271
L2529 10253
L2529 10215
L2520 10196
L2511 10187
L2492 10178
L2333 10178
" />
<path d="M2529 9971
L2436 10037
" />
<path d="M2529 10084
L2333 10084
L2333 10009
L2342 9990
L2351 9981
L2370 9971
L2398 9971
L2417 9981
L2426 9990
L2436 10009
L2436 10084
" />
<path d="M2529 9784
L2529 9896
" />
<path d="M2529 9840
L2333 9840
L2361 9859
L2380 9878
L2389 9896
" />
<path d="M2511 9700
L2520 9690
L2529 9700
L2520 9709
L2511 9700
L2529 9700
" />
<path d="M2333 9568
L2333 9550
L2342 9531
L2351 9521
L2370 9512
L2408 9503
L2455 9503
L2492 9512
L2511 9521
L2520 9531
L2529 9550
L2529 9568
L2520 9587
L2511 9596
L2492 9606
L2455 9615
L2408 9615
L2370 9606
L2351 9596
L2342 9587
L2333 9568
" />
<path d="M2179 9848
L2194 9863
L2209 9908
L2209 9938
L2194 9983
L2164 10013
L2134 10028
L2074 10043
L2029 10043
L1969 10028
L1939 10013
L1909 9983
L1894 9938
L1894 9908
L1909 9863
L1924 9848
" />
<path d="M2119 9728
L2119 9578
" />
<path d="M2209 9758
L1894 9653
L2209 9548
" />
<path d="M2209 9443
L1894 9443
L2209 9263
L1894 9263
" />
<path d="M1368 8797
L1368 8891
L1462 8900
L1452 8891
L1443 8872
L1443 8825
L1452 8806
L1462 8797
L1481 8787
L1527 8787
L1546 8797
L1556 8806
L1565 8825
L1565 8872
L1556 8891
L1546 8900
" />
<path d="M1368 8731
L1565 8666
L1368 8600
" />
<path d="M1377 7925
L1368 7944
L1368 7972
L1377 8000
L1396 8019
L1415 8028
L1452 8038
L1481 8038
L1518 8028
L1537 8019
L1556 8000
L1565 7972
L1565 7953
L1556 7925
L1546 7916
L1481 7916
L1481 7953
" />
<path d="M1565 7831
L1368 7831
L1565 7719
L1368 7719
" />
<path d="M1565 7625
L1368 7625
L1368 7578
L1377 7550
L1396 7531
L1415 7522
L1452 7513
L1481 7513
L1518 7522
L1537 7531
L1556 7550
L1565 7578
L1565 7625
" />
<path d="M4715 1120
L4715 1213
L4808 1223
L4799 1213
L4790 1195
L4790 1148
L4799 1129
L4808 1120
L4827 1110
L4874 1110
L4893 1120
L4902 1129
L4911 1148
L4911 1195
L4902 1213
L4893 1223
" />
<path d="M4715 1054
L4911 988
L4715 923
" />
<path d="M4911 2198
L4818 2263
" />
<path d="M4911 2310
L4715 2310
L4715 2235
L4724 2216
L4733 2207
L4752 2198
L4780 2198
L4799 2207
L4808 2216
L4818 2235
L4818 2310
" />
<path d="M4893 2001
L4902 2010
L4911 2038
L4911 2057
L4902 2085
L4883 2104
L4865 2113
L4827 2123
L4799 2123
L4761 2113
L4743 2104
L4724 2085
L4715 2057
L4715 2038
L4724 2010
L4733 2001
" />
<path d="M4715 1879
L4715 1860
L4724 1841
L4733 1832
L4752 1823
L4790 1813
L4836 1813
L4874 1823
L4893 1832
L4902 1841
L4911 1860
L4911 1879
L4902 1898
L4893 1907
L4874 1916
L4836 1926
L4790 1926
L4752 1916
L4733 1907
L4724 1898
L4715 1879
" />
<path d="M4911 3280
L4818 3346
" />
<path d="M4911 3393
L4715 3393
L4715 3318
L4724 3299
L4733 3290
L4752 3280
L4780 3280
L4799 3290
L4808 3299
L4818 3318
L4818 3393
" />
<path d="M4893 3083
L4902 3093
L4911 3121
L4911 3140
L4902 3168
L4883 3187
L4865 3196
L4827 3205
L4799 3205
L4761 3196
L4743 3187
L4724 3168
L4715 3140
L4715 3121
L4724 3093
L4733 3083
" />
<path d="M4911 2896
L4911 3008
" />
<path d="M4911 2952
L4715 2952
L4743 2971
L4761 2990
L4771 3008
" />
<path d="M4911 4265
L4818 4330
" />
<path d="M4911 4377
L4715 4377
L4715 4302
L4724 4283
L4733 4274
L4752 4265
L4780 4265
L4799 4274
L4808 4283
L4818 4302
L4818 4377
" />
<path d="M4893 4068
L4902 4077
L4911 4105
L4911 4124
L4902 4152
L4883 4171
L4865 4180
L4827 4190
L4799 4190
L4761 4180
L4743 4171
L4724 4152
L4715 4124
L4715 4105
L4724 4077
L4733 4068
" />
<path d="M4733 3993
L4724 3983
L4715 3965
L4715 3918
L4724 3899
L4733 3890
L4752 3880
L4771 3880
L4799 3890
L4911 4002
L4911 3880
" />
<path d="M4911 5249
L4818 5314
" />
<path d="M4911 5361
L4715 5361
L4715 5286
L4724 5268
L4733 5258
L4752 5249
L4780 5249
L4799 5258
L4808 5268
L4818 5286
L4818 5361
" />
<path d="M4893 5052
L4902 5061
L4911 5089
L4911 5108
L4902 5136
L4883 5155
L4865 5164
L4827 5174
L4799 5174
L4761 5164
L4743 5155
L4724 5136
L4715 5108
L4715 5089
L4724 5061
L4733 5052
" />
<path d="M4715 4986
L4715 4865
L4790 4930
L4790 4902
L4799 4883
L4808 4874
L4827 4865
L4874 4865
L4893 4874
L4902 4883
L4911 4902
L4911 4958
L4902 4977
L4893 4986
" />
<path d="M4911 6233
L4818 6299
" />
<path d="M4911 6346
L4715 6346
L4715 6271
L4724 6252
L4733 6242
L4752 6233
L4780 6233
L4799 6242
L4808 6252
L4818 6271
L4818 6346
" />
<path d="M4893 6036
L4902 6046
L4911 6074
L4911 6092
L4902 6121
L4883 6139
L4865 6149
L4827 6158
L4799 6158
L4761 6149
L4743 6139
L4724 6121
L4715 6092
L4715 6074
L4724 6046
L4733 6036
" />
<path d="M4780 5868
L4911 5868
" />
<path d="M4705 5914
L4846 5961
L4846 5839
" />
<path d="M4911 7217
L4818 7283
" />
<path d="M4911 7330
L4715 7330
L4715 7255
L4724 7236
L4733 7227
L4752 7217
L4780 7217
L4799 7227
L4808 7236
L4818 7255
L4818 7330
" />
<path d="M4893 7020
L4902 7030
L4911 7058
L4911 7077
L4902 7105
L4883 7124
L4865 7133
L4827 7142
L4799 7142
L4761 7133
L4743 7124
L4724 7105
L4715 7077
L4715 7058
L4724 7030
L4733 7020
" />
<path d="M4715 6842
L4715 6936
L4808 6946
L4799 6936
L4790 6917
L4790 6871
L4799 6852
L4808 6842
L4827 6833
L4874 6833
L4893 6842
L4902 6852
L4911 6871
L4911 6917
L4902 6936
L4893 6946
" />
<path d="M4911 8286
L4818 8352
" />
<path d="M4911 8398
L4715 8398
L4715 8323
L4724 8305
L4733 8295
L4752 8286
L4780 8286
L4799 8295
L4808 8305
L4818 8323
L4818 8398
" />
<path d="M4855 8211
L4855 8117
" />
<path d="M4911 8230
L4715 8164
L4911 8098
" />
<path d="M4780 7949
L4911 7949
" />
<path d="M4705 7995
L4846 8042
L4846 7920
" />
<path d="M4911 9270
L4818 9336
" />
<path d="M4911 9383
L4715 9383
L4715 9308
L4724 9289
L4733 9280
L4752 9270
L4780 9270
L4799 9280
L4808 9289
L4818 9308
L4818 9383
" />
<path d="M4855 9195
L4855 9101
" />
<path d="M4911 9214
L4715 9148
L4911 9083
" />
<path d="M4715 8923
L4715 9017
L4808 9026
L4799 9017
L4790 8998
L4790 8952
L4799 8933
L4808 8923
L4827 8914
L4874 8914
L4893 8923
L4902 8933
L4911 8952
L4911 8998
L4902 9017
L4893 9026
" />
<path d="M4724 10287
L4715 10306
L4715 10334
L4724 10362
L4743 10381
L4761 10390
L4799 10400
L4827 10400
L4865 10390
L4883 10381
L4902 10362
L4911 10334
L4911 10315
L4902 10287
L4893 10278
L4827 10278
L4827 10315
" />
<path d="M4911 10194
L4715 10194
L4911 10081
L4715 10081
" />
<path d="M4911 9987
L4715 9987
L4715 9940
L4724 9912
L4743 9894
L4761 9884
L4799 9875
L4827 9875
L4865 9884
L4883 9894
L4902 9912
L4911 9940
L4911 9987
" />
</g>
<g style="fill:#008484; fill-opacity:0.0; 
stroke:#008484; stroke-width:59.0551; stroke-opacity:1; 
stroke-linecap:round; stroke-linejoin:round;">
</g>
<g style="fill:#008484; fill-opacity:1.0; 
stroke:#008484; stroke-width:59.0551; stroke-opacity:1; 
stroke-linecap:round; stroke-linejoin:round;">
<polyline style="fill-rule:evenodd;"
points="393,10629
393,10236
787,10629
393,10629
" /> 
</g>
<g style="fill:#008484; fill-opacity:1.0; 
stroke:#008484; stroke-width:47.2441; stroke-opacity:1; 
stroke-linecap:round; stroke-linejoin:round;">
</g>
<g style="fill:#008484; fill-opacity:0.0; 
stroke:#008484; stroke-width:47.2441; stroke-opacity:1; 
stroke-linecap:round; stroke-linejoin:round;">
<path d="M3307 5059
L3307 4783
" />
<path d="M3779 4783
L3779 5059
" />
<path d="M1732 5944
L1732 5669
" />
<path d="M2204 5669
L2204 5944
" />
<path d="M1732 7224
L1732 6948
" />
<path d="M2204 6948
L2204 7224
" />
<path d="M1311 10267
L787 10267
" />
<path d="M1311 9744
L1311 10267
" />
<path d="M1311 9244
L263 9244
" />
<path d="M263 9244
L263 5220
" />
<path d="M1311 9244
L1311 5220
" />
<path d="M1311 5220
L263 5220
" />
<path d="M4064 3809
L4064 187
" />
<path d="M1033 3809
L4064 3809
" />
<path d="M1033 187
L1033 3809
" />
<path d="M4064 187
L1033 187
" />
<path d="M4064 580
L1033 580
" />
</g>
<g style="fill:#008484; fill-opacity:0.0; 
stroke:#008484; stroke-width:59.0551; stroke-opacity:1; 
stroke-linecap:round; stroke-linejoin:round;">
<circle cx="2843.31" cy="7831.89" r="150" /> 
<path d="M2593 8081
L2593 6681
" />
<path d="M4493 8081
L2593 8081
" />
<path d="M4493 6681
L4493 8081
" />
<path d="M2593 6681
L4493 6681
" />
</g>
<g style="fill:#008484; fill-opacity:0.0; 
stroke:#008484; stroke-width:49.2126; stroke-opacity:1; 
stroke-linecap:round; stroke-linejoin:round;">
<path d="M3219 4954
L3229 4963
L3238 4991
L3238 5010
L3229 5038
L3210 5057
L3191 5066
L3154 5075
L3126 5075
L3088 5066
L3069 5057
L3051 5038
L3041 5010
L3041 4991
L3051 4963
L3060 4954
" />
<path d="M3238 4766
L3238 4879
" />
<path d="M3238 4822
L3041 4822
L3069 4841
L3088 4860
L3098 4879
" />
<path d="M1645 5839
L1654 5849
L1663 5877
L1663 5896
L1654 5924
L1635 5943
L1616 5952
L1579 5961
L1551 5961
L1513 5952
L1495 5943
L1476 5924
L1467 5896
L1467 5877
L1476 5849
L1485 5839
" />
<path d="M1485 5764
L1476 5755
L1467 5736
L1467 5689
L1476 5671
L1485 5661
L1504 5652
L1523 5652
L1551 5661
L1663 5774
L1663 5652
" />
<path d="M1645 7119
L1654 7128
L1663 7156
L1663 7175
L1654 7203
L1635 7222
L1616 7231
L1579 7241
L1551 7241
L1513 7231
L1495 7222
L1476 7203
L1467 7175
L1467 7156
L1476 7128
L1485 7119
" />
<path d="M1467 7053
L1467 6931
L1541 6997
L1541 6969
L1551 6950
L1560 6941
L1579 6931
L1626 6931
L1645 6941
L1654 6950
L1663 6969
L1663 7025
L1654 7044
L1645 7053
" />
<path d="M1073 10597
L1213 10597
L1242 10606
L1260 10625
L1270 10653
L1270 10672
" />
<path d="M1270 10400
L1270 10512
" />
<path d="M1270 10456
L1073 10456
L1101 10475
L1120 10494
L1129 10512
" />
<path d="M581 2034
L721 2034
L749 2043
L768 2062
L778 2090
L778 2109
" />
<path d="M599 1949
L590 1940
L581 1921
L581 1874
L590 1856
L599 1846
L618 1837
L637 1837
L665 1846
L778 1959
L778 1837
" />
<path d="M2254 8712
L2413 8712
L2432 8703
L2441 8694
L2451 8675
L2451 8637
L2441 8619
L2432 8609
L2413 8600
L2254 8600
" />
<path d="M2451 8403
L2451 8516
" />
<path d="M2451 8459
L2254 8459
L2282 8478
L2301 8497
L2310 8516
" />
</g>
<g style="fill:#000000; fill-opacity:0.0; 
stroke:#000000; stroke-width:49.2126; stroke-opacity:1; 
stroke-linecap:round; stroke-linejoin:round;">
</g>
<g style="fill:#C2C2C2; fill-opacity:0.0; 
stroke:#C2C2C2; stroke-width:49.2126; stroke-opacity:1; 
stroke-linecap:round; stroke-linejoin:round;">
</g>
<g style="fill:#C2C2C2; fill-opacity:0.0; 
stroke:#C2C2C2; stroke-width:19.685; stroke-opacity:1; 
stroke-linecap:round; stroke-linejoin:round;">
<path d="M3287 5472
L3287 4370
" />
<path d="M3287 5472
L3799 5472
" />
<path d="M3799 4370
L3287 4370
" />
<path d="M3799 4370
L3799 5472
" />
<path d="M1712 6358
L1712 5255
" />
<path d="M1712 6358
L2224 6358
" />
<path d="M2224 5255
L1712 5255
" />
<path d="M2224 5255
L2224 6358
" />
<path d="M1712 7637
L1712 6535
" />
<path d="M1712 7637
L2224 7637
" />
<path d="M2224 6535
L1712 6535
" />
<path d="M2224 6535
L2224 7637
" />
<path d="M78 10452
L1496 10452
" />
<path d="M78 5039
L78 10452
" />
<path d="M1496 5039
L78 5039
" />
<path d="M1496 10452
L1496 5039
" />
<path d="M305 88
L4793 88
" />
<path d="M305 3907
L305 88
" />
<path d="M4793 3907
L305 3907
" />
<path d="M4793 88
L4793 3907
" />
</g>
<g style="fill:#000000; fill-opacity:0.0; 
stroke:#000000; stroke-width:19.685; stroke-opacity:1; 
stroke-linecap:round; stroke-linejoin:round;">
</g>
<g style="fill:#848484; fill-opacity:0.0; 
stroke:#848484; stroke-width:19.685; stroke-opacity:1; 
stroke-linecap:round; stroke-linejoin:round;">
</g>
<g style="fill:#848484; fill-opacity:0.0; 
stroke:#848484; stroke-width:39.3701; stroke-opacity:1; 
stroke-linecap:round; stroke-linejoin:round;">
<path d="M3700 5236
L3385 5236
" />
<path d="M3700 4606
L3700 5236
" />
<path d="M3385 4606
L3700 4606
" />
<path d="M3385 5236
L3385 4606
" />
<path d="M2125 5492
L2125 6122
" />
<path d="M2125 6122
L1811 6122
" />
<path d="M1811 6122
L1811 5492
" />
<path d="M1811 5492
L2125 5492
" />
<path d="M2125 7401
L1811 7401
" />
<path d="M2125 6771
L2125 7401
" />
<path d="M1811 6771
L2125 6771
" />
<path d="M1811 7401
L1811 6771
" />
<path d="M1287 9994
L1037 10244
" />
<path d="M1287 5244
L1287 9994
" />
<path d="M287 5244
L1287 5244
" />
<path d="M287 10244
L287 5244
" />
<path d="M1037 10244
L287 10244
" />
</g>
<g style="fill:#848484; fill-opacity:0.0; 
stroke:#848484; stroke-width:49.2126; stroke-opacity:1; 
stroke-linecap:round; stroke-linejoin:round;">
<path d="M4026 5254
L4026 5235
L4035 5216
L4044 5207
L4063 5197
L4101 5188
L4147 5188
L4185 5197
L4204 5207
L4213 5216
L4222 5235
L4222 5254
L4213 5272
L4204 5282
L4185 5291
L4147 5300
L4101 5300
L4063 5291
L4044 5282
L4035 5272
L4026 5254
" />
<path d="M4213 5094
L4222 5094
L4241 5104
L4251 5113
" />
<path d="M4091 4925
L4222 4925
" />
<path d="M4016 4972
L4157 5019
L4157 4897
" />
<path d="M4026 4841
L4026 4710
L4222 4794
" />
<path d="M4091 4550
L4222 4550
" />
<path d="M4091 4635
L4194 4635
L4213 4625
L4222 4607
L4222 4579
L4213 4560
L4204 4550
" />
<path d="M3613 4954
L3622 4963
L3632 4991
L3632 5010
L3622 5038
L3604 5057
L3585 5066
L3547 5075
L3519 5075
L3482 5066
L3463 5057
L3444 5038
L3435 5010
L3435 4991
L3444 4963
L3454 4954
" />
<path d="M3632 4766
L3632 4879
" />
<path d="M3632 4822
L3435 4822
L3463 4841
L3482 4860
L3491 4879
" />
<path d="M1467 5839
L1467 5952
" />
<path d="M1467 5896
L1270 5896
L1298 5914
L1317 5933
L1326 5952
" />
<path d="M1335 5671
L1467 5671
" />
<path d="M1335 5755
L1438 5755
L1457 5746
L1467 5727
L1467 5699
L1457 5680
L1448 5671
" />
<path d="M2038 5839
L2048 5849
L2057 5877
L2057 5896
L2048 5924
L2029 5943
L2010 5952
L1973 5961
L1945 5961
L1907 5952
L1888 5943
L1870 5924
L1860 5896
L1860 5877
L1870 5849
L1879 5839
" />
<path d="M1879 5764
L1870 5755
L1860 5736
L1860 5689
L1870 5671
L1879 5661
L1898 5652
L1916 5652
L1945 5661
L2057 5774
L2057 5652
" />
<path d="M2648 7306
L2648 7419
" />
<path d="M2648 7363
L2451 7363
L2479 7381
L2498 7400
L2507 7419
" />
<path d="M2451 7185
L2451 7166
L2460 7147
L2470 7138
L2488 7128
L2526 7119
L2573 7119
L2610 7128
L2629 7138
L2638 7147
L2648 7166
L2648 7185
L2638 7203
L2629 7213
L2610 7222
L2573 7231
L2526 7231
L2488 7222
L2470 7213
L2460 7203
L2451 7185
" />
<path d="M2451 6997
L2451 6978
L2460 6960
L2470 6950
L2488 6941
L2526 6931
L2573 6931
L2610 6941
L2629 6950
L2638 6960
L2648 6978
L2648 6997
L2638 7016
L2629 7025
L2610 7035
L2573 7044
L2526 7044
L2488 7035
L2470 7025
L2460 7016
L2451 6997
" />
<path d="M2516 6763
L2648 6763
" />
<path d="M2516 6847
L2619 6847
L2638 6838
L2648 6819
L2648 6791
L2638 6772
L2629 6763
" />
<path d="M2038 7119
L2048 7128
L2057 7156
L2057 7175
L2048 7203
L2029 7222
L2010 7231
L1973 7241
L1945 7241
L1907 7231
L1888 7222
L1870 7203
L1860 7175
L1860 7156
L1870 7128
L1879 7119
" />
<path d="M1860 7053
L1860 6931
L1935 6997
L1935 6969
L1945 6950
L1954 6941
L1973 6931
L2020 6931
L2038 6941
L2048 6950
L2057 6969
L2057 7025
L2048 7044
L2038 7053
" />
<path d="M435 4915
L435 4718
L510 4718
L529 4728
L538 4737
L548 4756
L548 4784
L538 4803
L529 4812
L510 4822
L435 4822
" />
<path d="M745 4915
L679 4822
" />
<path d="M632 4915
L632 4718
L707 4718
L726 4728
L735 4737
L745 4756
L745 4784
L735 4803
L726 4812
L707 4822
L632 4822
" />
<path d="M867 4718
L904 4718
L923 4728
L942 4747
L951 4784
L951 4850
L942 4887
L923 4906
L904 4915
L867 4915
L848 4906
L829 4887
L820 4850
L820 4784
L829 4747
L848 4728
L867 4718
" />
<path d="M1138 4728
L1120 4718
L1092 4718
L1063 4728
L1045 4747
L1035 4765
L1026 4803
L1026 4831
L1035 4868
L1045 4887
L1063 4906
L1092 4915
L1110 4915
L1138 4906
L1148 4897
L1148 4831
L1110 4831
" />
<path d="M679 7809
L820 7809
L848 7819
L867 7837
L876 7865
L876 7884
" />
<path d="M876 7612
L876 7725
" />
<path d="M876 7669
L679 7669
L707 7687
L726 7706
L735 7725
" />
<path d="M5236 2405
L5396 2405
L5414 2396
L5424 2387
L5433 2368
L5433 2330
L5424 2312
L5414 2302
L5396 2293
L5236 2293
" />
<path d="M5424 2208
L5433 2180
L5433 2133
L5424 2115
L5414 2105
L5396 2096
L5377 2096
L5358 2105
L5349 2115
L5339 2133
L5330 2171
L5321 2190
L5311 2199
L5292 2208
L5274 2208
L5255 2199
L5246 2190
L5236 2171
L5236 2124
L5246 2096
" />
<path d="M5330 1946
L5339 1918
L5349 1908
L5367 1899
L5396 1899
L5414 1908
L5424 1918
L5433 1937
L5433 2012
L5236 2012
L5236 1946
L5246 1927
L5255 1918
L5274 1908
L5292 1908
L5311 1918
L5321 1927
L5330 1946
L5330 2012
" />
<path d="M5452 1862
L5452 1712
" />
<path d="M5377 1674
L5377 1580
" />
<path d="M5433 1693
L5236 1627
L5433 1562
" />
<path d="M2076 7670
L2076 7474
L2151 7474
L2170 7483
L2179 7492
L2188 7511
L2188 7539
L2179 7558
L2170 7567
L2151 7577
L2076 7577
" />
<path d="M2273 7670
L2273 7474
" />
<path d="M2479 7652
L2470 7661
L2441 7670
L2423 7670
L2395 7661
L2376 7642
L2366 7624
L2357 7586
L2357 7558
L2366 7520
L2376 7502
L2395 7483
L2423 7474
L2441 7474
L2470 7483
L2479 7492
" />
<path d="M2666 7670
L2554 7670
" />
<path d="M2610 7670
L2610 7474
L2591 7502
L2573 7520
L2554 7530
" />
<path d="M2835 7474
L2798 7474
L2779 7483
L2769 7492
L2751 7520
L2741 7558
L2741 7633
L2751 7652
L2760 7661
L2779 7670
L2816 7670
L2835 7661
L2844 7652
L2854 7633
L2854 7586
L2844 7567
L2835 7558
L2816 7549
L2779 7549
L2760 7558
L2751 7567
L2741 7586
" />
<path d="M2994 7745
L2985 7736
L2966 7708
L2957 7689
L2948 7661
L2938 7614
L2938 7577
L2948 7530
L2957 7502
L2966 7483
L2985 7455
L2994 7445
" />
<path d="M3163 7670
L3069 7670
L3069 7474
" />
<path d="M3210 7745
L3219 7736
L3238 7708
L3248 7689
L3257 7661
L3266 7614
L3266 7577
L3257 7530
L3248 7502
L3238 7483
L3219 7455
L3210 7445
" />
<path d="M3426 7567
L3360 7567
" />
<path d="M3360 7670
L3360 7474
L3454 7474
" />
<path d="M3632 7670
L3519 7670
" />
<path d="M3576 7670
L3576 7474
L3557 7502
L3538 7520
L3519 7530
" />
<path d="M3801 7539
L3801 7670
" />
<path d="M3754 7464
L3707 7605
L3829 7605
" />
<path d="M3997 7474
L3904 7474
L3894 7567
L3904 7558
L3922 7549
L3969 7549
L3988 7558
L3997 7567
L4007 7586
L4007 7633
L3997 7652
L3988 7661
L3969 7670
L3922 7670
L3904 7661
L3894 7652
" />
<path d="M4185 7474
L4091 7474
L4082 7567
L4091 7558
L4110 7549
L4157 7549
L4176 7558
L4185 7567
L4194 7586
L4194 7633
L4185 7652
L4176 7661
L4157 7670
L4110 7670
L4091 7661
L4082 7652
" />
<path d="M4279 7595
L4429 7595
" />
<path d="M4522 7670
L4522 7474
" />
<path d="M4569 7689
L4719 7689
" />
<path d="M4757 7661
L4785 7670
L4832 7670
L4850 7661
L4860 7652
L4869 7633
L4869 7614
L4860 7595
L4850 7586
L4832 7577
L4794 7567
L4775 7558
L4766 7549
L4757 7530
L4757 7511
L4766 7492
L4775 7483
L4794 7474
L4841 7474
L4869 7483
" />
<path d="M4925 7474
L5038 7474
" />
<path d="M4982 7670
L4982 7474
" />
</g>
<g style="fill:#000000; fill-opacity:0.0; 
stroke:#000000; stroke-width:49.2126; stroke-opacity:1; 
stroke-linecap:round; stroke-linejoin:round;">
</g>
<g style="fill:#C2C200; fill-opacity:0.0; 
stroke:#C2C200; stroke-width:49.2126; stroke-opacity:1; 
stroke-linecap:round; stroke-linejoin:round;">
</g>
<g style="fill:#C2C200; fill-opacity:0.0; 
stroke:#C2C200; stroke-width:78.7402; stroke-opacity:1; 
stroke-linecap:round; stroke-linejoin:round;">
<path d="M196 393
L196 10925
" />
<path d="M6299 393
L196 393
" />
<path d="M6299 10925
L6299 393
" />
<path d="M196 10925
L6299 10925
" />
</g> 
</svg>
